# xmcd
#
# Track frame offsets:
#       182
#       8475
#       19580
#       28930
#       42660
#       61095
#       69790
#       77077
#       88822
#       99762
#       113437
#       126152
#
# Disc length: 1819 seconds
#
# Revision: 3
# Processed by: cddbd v1.5.2PL0 Copyright (c) Steve Scherf et al.
# Submitted via: FreeDbEdit v0.1
#
DISCID=8507190c
DTITLE=Roger Miller - King of the Road, Volume 1 [CD1]
DYEAR=1995
DGENRE=Country
TTITLE0=Dang Me
TTITLE1=King of the Road
TTITLE2=Chug-A-Lug
TTITLE3=Ruby
TTITLE4=Me and Bobby Mcgee
TTITLE5=You Can't Roller Skate in a Buffalo Herd
TTITLE6=Hey Good Lookin'
TTITLE7=By the Time I Get to Phoenix
TTITLE8=Everybody's Talkin'
TTITLE9=South
TTITLE10=The Last Word in Lonesome Is Me
TTITLE11=Ballad of Waterhole #3
EXTD=
EXTT0=
EXTT1=
EXTT2=
EXTT3=
EXTT4=
EXTT5=
EXTT6=
EXTT7=
EXTT8=
EXTT9=
EXTT10=
EXTT11=
PLAYORDER=
